<svg xmlns="http://www.w3.org/2000/svg" width="256" height="256"><path fill-opacity=".016" d="M0 128.004v128.004l128.25-.254 128.25-.254.254-127.75L257.008 0H0v128.004m.485.496c0 70.4.119 99.053.265 63.672.146-35.38.146-92.98 0-128C.604 29.153.485 58.1.485 128.5" fill="#1976D2" fill-rule="evenodd"/><path fill-opacity=".382" d="M21.324 1.43C12.713 4.142 5.526 10.431 1.89 18.435.133 22.304.043 27.597.022 128.434L0 234.369l2.173 4.488c2.67 5.516 8.333 11.307 14.036 14.352L20.5 255.5l54.25.283 54.25.283V130h126.982l.268 52.25c.148 28.738.332 4.1.409-54.75.078-58.85-.219-105.875-.659-104.5-.553 1.726-.831 1.948-.9.717-.363-6.481-9.45-17.137-17.978-21.08C232.504.502 232.409.5 129 .308 45.831.153 24.68.373 21.324 1.43M.482 128.5c0 58.85.121 82.778.268 53.173.147-29.604.147-77.754 0-107C.603 45.428.482 69.65.482 128.5m173.356-80.367c-3.45 1.264-6.253 7.043-5.424 11.185.958 4.794 4.268 7.682 8.806 7.682 5.551 0 8.78-3.447 8.78-9.373 0-5.878-.681-7.411-4.072-9.164-3.208-1.659-4.335-1.705-8.09-.33M188.655 64.5C181.366 75.439 177.552 82 178.482 82c.819 0 6.363-7.312 12.32-16.25C204.181 45.677 203.41 47 201.717 47c-.77 0-6.648 7.875-13.062 17.5m-15.098-12.277C170.192 57.026 172.72 65 177.608 65c4.503 0 6.625-9.315 3.132-13.75-1.563-1.985-5.484-1.454-7.183.973M65 60v6h-6c-4.667 0-6 .333-6 1.5s1.333 1.5 6 1.5h6v6.583c0 4.82.335 6.473 1.25 6.171.774-.256 1.363-2.763 1.548-6.583L68.095 69h5.953C78.672 69 80 68.665 80 67.5c0-1.167-1.333-1.5-6-1.5h-6v-6c0-4.667-.333-6-1.5-6S65 55.333 65 60m134.02 2.244c-5.71 2.982-6.844 12.086-2.097 16.833 6.945 6.945 16.628.005 14.657-10.505-1.095-5.835-7.412-9.018-12.56-6.328m.015 3.69c-1.773 3.314-1.25 9.851.965 12.066 1.1 1.1 2.45 2 3 2 2.448 0 5-4.117 5-8.066 0-5.642-1.444-7.934-5-7.934-1.873 0-3.303.698-3.965 1.934M188 179c0 1.825-.519 3-1.326 3-2.581 0-5.674 4.504-5.674 8.264 0 2.946.633 4.117 3.344 6.185 1.84 1.403 3.804 2.551 4.366 2.551 2.212 0 6.29 4.238 6.29 6.537 0 4.073-6.219 5.643-12.119 3.059-1.145-.502-1.779-.092-2.17 1.402-.418 1.598.052 2.342 1.933 3.057 1.368.52 3.102.945 3.855.945.752 0 1.511 1.238 1.685 2.75.417 3.624 3.211 3.661 3.628.048.184-1.601 1.091-2.95 2.224-3.309 3.031-.962 5.964-5.449 5.964-9.124 0-4.049-2.121-6.379-8.966-9.848-4.026-2.04-5.034-3.052-5.034-5.055 0-3.512 3.991-5.281 8.269-3.667 2.445.923 3.299.911 3.913-.057 1.25-1.971.395-3.141-3.01-4.118-2.407-.69-3.172-1.477-3.172-3.265 0-1.688-.566-2.355-2-2.355-1.556 0-2 .667-2 3m-130.037 9.945c2.22 3.27 4.037 6.225 4.037 6.567 0 .342-1.065 2.054-2.368 3.805-1.302 1.751-3.154 4.421-4.115 5.933-1.727 2.718-1.72 2.75.627 2.75 1.785 0 3.131-1.257 5.425-5.066l3.05-5.066 3.149 5.066c2.464 3.964 3.71 5.066 5.728 5.066h2.579l-4.038-5.945c-2.22-3.27-4.037-6.439-4.037-7.043 0-.603 1.814-3.553 4.032-6.555 3.952-5.35 3.983-5.457 1.591-5.457-1.803 0-3.18 1.173-5.281 4.498-1.563 2.474-3.067 4.498-3.342 4.498-.275 0-1.779-2.024-3.342-4.498-2.104-3.33-3.477-4.498-5.287-4.498-2.415 0-2.396.073 1.592 5.945" fill="#1976D2" fill-rule="evenodd"/><path fill-opacity=".387" d="M72 1c-50.966.495-51.543.523-55.694 2.742C10.582 6.801 5.197 12.506 2.374 18.5l-2.354 5-.01 104.072C-.001 243.831-.423 236.83 7.111 245.388c2.209 2.51 6.487 5.74 9.675 7.306L22.5 255.5l52.743.284 52.742.283.258-63.283.257-63.284 63.741-.257 63.741-.258.268 51.758c.148 28.466.313 4.282.367-53.743.055-58.025-.223-103.7-.617-101.5-.631 3.526-.734 3.644-.868 1-.389-7.699-8.002-18.251-16.409-22.743-4.002-2.139-5.479-2.27-28.223-2.505C146.116.588 119.476.539 72 1M.482 128c0 58.025.12 81.762.268 52.75.147-29.013.147-76.488 0-105.5C.602 46.237.482 69.975.482 128m170.441-78.077C168.53 52.316 168 53.69 168 57.5s.53 5.184 2.923 7.577c6.916 6.916 17.367.38 15.739-9.844-1.272-7.991-10.084-10.964-15.739-5.31M190 61.645a24467.225 24467.225 0 00-11.348 17.498c-1.814 2.804-1.811 2.857.137 2.857 1.468 0 4.88-4.442 13.098-17.049C197.999 55.574 203 47.699 203 47.451c0-.248-.787-.45-1.75-.449-1.153.002-4.989 4.994-11.25 14.643m-15.478-10.024c-2.433 2.433-1.69 10.207 1.155 12.087 1.956 1.293 2.386 1.229 4.25-.635 2.686-2.686 2.823-9.084.244-11.418-2.296-2.078-3.597-2.086-5.649-.034M64.667 53.667c-.367.366-.667 3.291-.667 6.5V66h-6.073c-5.245 0-6.028.239-5.741 1.75.263 1.38 1.546 1.813 6.074 2.05l5.74.3v5.95c0 5.283.224 5.95 2 5.95 1.778 0 2-.667 2-6v-6h6c5.333 0 6-.222 6-2s-.667-2-6-2h-6v-6.5c0-4.75-.359-6.5-1.333-6.5-.734 0-1.634.3-2 .667m132.092 9.847c-3.077 3.077-3.983 7.092-2.672 11.84 1.217 4.408 4.238 6.656 8.886 6.614 6.042-.054 9.027-3.839 9.027-11.448 0-3.562-.558-5.169-2.455-7.065-3.415-3.416-9.339-3.388-12.786.059m3.315 1.897c-3.288 3.961-1.614 12.787 2.539 13.387 2.934.425 4.682-2.195 4.792-7.183.142-6.418-4.144-10.045-7.331-6.204M189 178.917c0 2.114-.486 3.083-1.545 3.083-2.581 0-6.455 4.662-6.455 7.766 0 3.61 3.028 6.889 8.55 9.255 5.123 2.196 7.033 5.022 5.424 8.027-1.583 2.959-5.147 4.019-9.483 2.822-2.023-.559-3.917-.777-4.208-.486-1.304 1.304.867 3.422 4.137 4.035 2.952.554 3.58 1.102 3.58 3.126 0 1.35.45 2.455 1 2.455s1-1.119 1-2.487c0-1.872.822-2.83 3.328-3.877 6.8-2.841 7.278-11.185.868-15.13-8.323-5.122-9.702-6.181-9.989-7.67-.612-3.176 2.784-5.116 7.896-4.51 3.466.41 4.866.197 5.249-.8.554-1.446-1.314-2.526-4.367-2.526-1.262 0-1.953-.852-2.169-2.673-.46-3.893-2.816-4.236-2.816-.41m-135 4.638c0 .305 1.754 3.138 3.899 6.296l3.898 5.741-4.355 5.954c-2.395 3.275-4.375 6.292-4.399 6.704-.024.412 1.07.75 2.43.75 1.856 0 3.323-1.26 5.869-5.042l3.396-5.042 3.235 5.042c2.408 3.753 3.848 5.042 5.631 5.042 1.318 0 2.396-.306 2.396-.68 0-.374-1.846-3.514-4.102-6.977l-4.103-6.296 3.444-4.774c5.224-7.242 5.233-7.273 2.056-7.273-2.215 0-3.355.862-5.295 4-1.36 2.2-2.756 4-3.103 4-.347 0-1.822-1.8-3.278-4-1.909-2.884-3.341-4-5.133-4-1.367 0-2.486.25-2.486.555" fill="#1976D2" fill-rule="evenodd"/><path fill-opacity=".232" d="M124 62.93V125H62c-61.333 0-62 .022-62 2s.667 2 62 2h62v63.5c0 62.833.021 63.5 2 63.5s2-.667 2-63.493v-63.492l64.25-.258 64.25-.257.224-2.5c.123-1.375.01-2.05-.25-1.5-.31.655-22.359.909-63.966.735l-63.493-.264-.257-61.736L128.5 1.5l-2.25-.32L124 .861V62.93M63.32 60c0 3.575.182 5.037.403 3.25.222-1.788.222-4.712 0-6.5-.221-1.788-.403-.325-.403 3.25m109.838-2c0 1.375.227 1.938.504 1.25.278-.687.278-1.812 0-2.5-.277-.687-.504-.125-.504 1.25m2.592 10.662c.688.278 1.813.278 2.5 0 .688-.277.125-.504-1.25-.504s-1.937.227-1.25.504M.158 127c0 1.375.227 1.938.504 1.25.278-.687.278-1.812 0-2.5-.277-.687-.504-.125-.504 1.25M189 179.379c0 1.688-.852 2.731-2.935 3.594-3.799 1.574-5.571 6.198-3.796 9.906.691 1.441 3.412 3.787 6.049 5.213 6.694 3.619 8.076 5.204 7.284 8.357-.927 3.692-4.707 5.203-9.689 3.873-2.423-.647-4.183-.694-4.536-.123-.818 1.324.048 1.937 3.822 2.702 2.64.536 3.364 1.214 3.617 3.385.43 3.685 2.184 3.455 2.184-.286 0-1.868.515-3 1.365-3 .751 0 2.551-.933 4-2.073 2.001-1.573 2.631-2.957 2.62-5.75-.021-4.952-.816-5.949-7.631-9.568-4.644-2.467-5.918-3.664-6.164-5.796-.229-1.981.361-3.128 2.242-4.361 2.403-1.574 4.576-1.537 8.975.151 1.043.4 1.593.066 1.593-.967 0-.943-1.31-1.916-3.25-2.417-2.247-.579-3.349-1.513-3.57-3.028-.43-2.951-2.18-2.8-2.18.188" fill="#1976D2" fill-rule="evenodd"/></svg>