<svg xmlns="http://www.w3.org/2000/svg" width="256" height="256"><path fill-opacity=".016" d="M0 128.004v128.004l128.25-.254 128.25-.254.254-127.75L257.008 0H0v128.004m.485.496c0 70.4.119 99.053.265 63.672.146-35.38.146-92.98 0-128C.604 29.153.485 58.1.485 128.5" fill="#1976D2" fill-rule="evenodd"/><path fill-opacity=".231" d="M19.041 2.2C11.863 4.956 4.847 12.122 2.076 19.526.024 25.011 0 26.265 0 128c0 102.889.001 102.927 2.151 108.675 2.796 7.471 9.784 14.409 17.375 17.249 5.36 2.005 7.35 2.076 58.512 2.076H131V131h124.982l.268 50.25c.148 27.638.377 3.311.509-54.059.138-59.714-.134-104.077-.637-103.766-.483.298-1.129-.708-1.434-2.236-1.48-7.399-12.079-17.815-20.511-20.156C231.779.366 194.68.027 127.5.058 25.392.104 24.453.122 19.041 2.2M.482 128c0 57.475.12 80.987.268 52.25.147-28.738.147-75.763 0-104.5C.602 47.012.482 70.525.482 128M156 63v18h7V68h5.435C178.464 68 183 64.585 183 57.034 183 48.088 178.393 45 165.05 45H156v18m34 0v18h7V45h-7v18m11-15.552c0 2.248.429 2.472 5.25 2.75l5.25.302.276 15.25.276 15.25h6.896l.276-15.25.276-15.25h5.252c5.063 0 5.251-.099 5.25-2.75L230 45h-29v2.448M59.805 54.75L59.5 59.5l-4.25.307c-3.967.288-4.25.504-4.25 3.25 0 2.821.186 2.943 4.5 2.943H60v5c0 4.889.067 5 3 5s3-.111 3-5v-5h4.5c4.333 0 4.5-.111 4.5-3s-.167-3-4.5-3H66v-5c0-4.868-.078-5-2.945-5-2.804 0-2.96.228-3.25 4.75m103.655-3.506c-.319.83-.44 3.703-.27 6.383l.31 4.873 4.796-.166c5.66-.196 7.704-1.593 7.704-5.265 0-4.119-2.023-5.992-7.23-6.696-3.714-.502-4.855-.315-5.31.871m15.588 124.516c-1.326 1.073-2.386 3.345-2.718 5.82-1.462 10.897 13.853 13.969 16.207 3.25 1.749-7.963-7.323-14.063-13.489-9.07m-161.987.43c.034.72 2.621 8.735 5.75 17.81l5.689 16.5 3.752.31c4.339.36 3.227 2.389 11.27-20.56L48.867 175h-7.756l-3.618 11.75c-1.99 6.463-3.856 12.571-4.147 13.575-.291 1.004-.727 1.627-.97 1.384-.243-.243-2.139-6.239-4.214-13.325L24.389 175.5l-3.694-.31c-2.56-.215-3.676.092-3.634 1m40.042 10.515c-2.419 6.487-5.453 14.608-6.742 18.045L48.017 211h3.847c3.483 0 3.935-.308 4.776-3.25.925-3.238.954-3.251 8.104-3.543l7.177-.293.847 3.293c.748 2.906 1.292 3.33 4.628 3.609 4.458.372 4.824 2.493-3.41-19.791L68.25 175.5l-3.375-.295-3.375-.295-4.397 11.795M80 178c0 2.97.056 3 5.5 3H91v30h7v-30h5.333c6.188 0 6.541-.21 5.907-3.524l-.473-2.476H80v3m119.232 1.271c-.538.676-4.002 6.147-7.699 12.157-3.696 6.011-7.384 11.941-8.195 13.179-1.342 2.048-1.297 2.344.503 3.308 1.785.955 2.728-.128 9.727-11.179 4.262-6.73 8.384-13.216 9.159-14.414 1.262-1.951 1.204-2.289-.554-3.229-1.431-.766-2.228-.718-2.941.178m-17.047 3.401c.251 3.056.718 3.828 2.315 3.828 1.619 0 2-.667 2-3.5 0-2.898-.398-3.556-2.315-3.828-2.118-.3-2.288-.002-2 3.5m-119.75 7.578c-.95 2.887-1.934 5.813-2.188 6.5-.327.886.881 1.25 4.146 1.25 2.534 0 4.615-.338 4.625-.75.042-1.684-3.567-12.234-4.188-12.241-.368-.005-1.446 2.354-2.395 5.241M196 197c-2.923 2.923-2.751 9.946.314 12.826 3.174 2.981 8.093 2.858 11.231-.281 3.323-3.322 3.391-9.317.141-12.371-3.025-2.841-8.931-2.929-11.686-.174m4.079 2.951c-1.9 1.174-.918 6.468 1.277 6.884 2.616.497 4.005-1.262 3.279-4.151-.684-2.727-2.653-3.909-4.556-2.733" fill="#1976D2" fill-rule="evenodd"/><path fill-opacity=".508" d="M21.205 1.885C11.228 5.349 3.102 14.377 1.046 24.28.287 27.934.037 60.537.227 131.02L.5 232.5l2.78 5.661c3.201 6.518 8.963 12.134 15.598 15.202 4.511 2.085 5.906 2.144 57.872 2.428l53.25.291V130h125.981l.269 49.25c.148 27.087.377 3.688.51-52C256.919 60.256 256.662 26 256 26c-.55 0-1.01-.788-1.022-1.75-.081-6.423-9.222-17.757-17.251-21.387L232.5.5l-103-.227C31.77.058 26.229.14 21.205 1.885M.481 128c0 55.825.121 78.662.269 50.75.147-27.913.147-73.588 0-101.5C.602 49.337.481 72.175.481 128M155.75 44.567c-.412.421-.75 8.791-.75 18.6V81h9.141l-.247-6.072-.248-6.072 5.554-.339c9.206-.562 13.612-3.696 14.5-10.315.665-4.963-1.668-9.606-5.967-11.873-3.43-1.809-20.591-3.185-21.983-1.762m33.694.718c-.271.707-.37 9.144-.219 18.75L189.5 81.5h7l.272-18.75.272-18.75h-3.553c-1.972 0-3.773.572-4.047 1.285M201 47.473V51h11v30h8V51H231.127l-.314-3.25-.313-3.25-14.75-.277-14.75-.276v3.526M59.714 49.619c-.393.393-.714 2.664-.714 5.048V59h-4.5c-4.476 0-4.5.019-4.5 3.5 0 3.475.031 3.5 4.448 3.5h4.447l.303 5.25.302 5.25h7l.302-5.25.303-5.25h4.511c4.487 0 4.509-.017 4.197-3.25-.293-3.043-.58-3.269-4.51-3.555l-4.198-.305-.302-4.695c-.285-4.419-.481-4.712-3.339-4.992-1.67-.164-3.357.024-3.75.416M163.5 56.5V62h4.595c6.927 0 9.756-3.912 6.348-8.777-1.232-1.76-2.533-2.223-6.25-2.223H163.5v5.5M16.048 175.75c.027.412 2.839 8.625 6.25 18.25l6.202 17.5h8l6.165-17c3.39-9.35 6.203-17.562 6.25-18.25.056-.819-1.395-1.25-4.208-1.25h-4.292l-3.876 12.998c-2.132 7.149-3.979 12.886-4.106 12.75-.126-.136-1.911-5.986-3.968-12.998L24.727 175h-4.364c-2.399 0-4.341.338-4.315.75m44.071 1.5a9051.5 9051.5 0 01-6.475 17.303C50.54 202.832 48 210.144 48 210.803c0 .728 1.552 1.197 3.96 1.197 3.76 0 4.021-.204 5.171-4.042l1.211-4.042 6.493.292c6.443.29 6.503.319 7.663 3.792 1.066 3.191 1.549 3.528 5.467 3.814 3.221.235 4.177-.015 3.813-1l-6.85-18.564L68.562 175h-3.806c-3.034 0-3.974.456-4.637 2.25M80 178c0 2.97.056 3 5.5 3H91V212.121l3.75-.311 3.75-.31.276-15.25.276-15.25h5.474c5.416 0 5.474-.032 5.474-3v-3H80v3m98.655-1.171c-2.38 2.63-2.181 9.645.345 12.171 2.633 2.633 7.964 2.614 10.811-.039 2.636-2.455 2.957-8.42.632-11.738-2.034-2.904-9.297-3.147-11.788-.394m3.395 2.611c-.657.791-1.049 2.704-.872 4.25.253 2.207.835 2.81 2.713 2.81 3.332 0 4.819-2.647 3.326-5.922-1.307-2.869-3.356-3.321-5.167-1.138m16.155 2.31c-1.063 1.512-4.948 7.648-8.635 13.634-4.774 7.752-6.394 11.192-5.629 11.957.764.764 1.457.654 2.407-.384 2.987-3.264 16.637-26.173 16.106-27.032-.975-1.578-2.241-1.034-4.249 1.825m-135.518 9.575c-.928 2.943-1.687 5.548-1.687 5.789 0 .242 1.758.271 3.907.066l3.906-.372-1.539-4.654c-2.218-6.704-2.708-6.792-4.587-.829m133.768 6.13c-4.47 4.469-2.573 12.716 3.177 13.815 6.509 1.244 11.051-3.604 9.701-10.355-1.188-5.94-8.448-7.891-12.878-3.46m3.254 2.169c-1.078 1.079-.846 7.173.3 7.882.555.342 1.93.331 3.055-.026 2.923-.928 2.417-7.84-.605-8.272-1.123-.161-2.36.027-2.75.416" fill="#1976D2" fill-rule="evenodd"/><path fill-opacity=".221" d="M126 63v63H63c-62.333 0-63 .021-63 2s.667 2 63 2h63v63c0 62.333.021 63 2 63s2-.667 2-62.993v-62.992l63.25-.258c62.389-.253 63.254-.284 63.537-2.257.284-1.982-.284-2-63-2H130.5l-.258-62.75C129.988.832 129.959 0 127.992 0 126.024 0 126 .746 126 63m33.776-19.267c2.352.212 5.952.209 8-.006s.124-.388-4.276-.384c-4.4.003-6.076.179-3.724.39m31.474-.044c.963.252 2.537.252 3.5 0 .963-.251.175-.457-1.75-.457s-2.713.206-1.75.457m17.046.055c4.287.188 11.037.187 15-.002 3.962-.19.454-.343-7.796-.342-8.25.001-11.492.156-7.204.344M231.232 48c0 1.925.206 2.712.457 1.75.252-.962.252-2.538 0-3.5-.251-.962-.457-.175-.457 1.75m-169.982.689c.962.252 2.538.252 3.5 0 .963-.251.175-.457-1.75-.457s-2.712.206-1.75.457M58.286 54.5c.008 2.75.202 3.756.432 2.236.229-1.52.223-3.77-.014-5-.237-1.23-.425.014-.418 2.764m8.966-1c.011 2.2.216 2.982.455 1.738.239-1.244.23-3.044-.02-4s-.446.062-.435 2.262M220.402 66c0 8.525.154 12.013.341 7.75.188-4.263.188-11.237 0-15.5-.187-4.263-.341-.775-.341 7.75M68.75 58.706c1.237.238 3.263.238 4.5 0 1.237-.239.225-.434-2.25-.434s-3.487.195-2.25.434M76.232 63c0 1.925.206 2.713.457 1.75.252-.962.252-2.538 0-3.5-.251-.962-.457-.175-.457 1.75M191.25 82.689c.963.252 2.537.252 3.5 0 .963-.251.175-.457-1.75-.457s-2.713.206-1.75.457M.158 128c0 1.375.227 1.938.504 1.25.278-.687.278-1.812 0-2.5-.277-.687-.504-.125-.504 1.25M179 177c-4.699 4.699-1.203 13.4 5.385 13.4 4.391 0 6.494-1.88 7.239-6.47 1.18-7.274-7.509-12.045-12.624-6.93m4.269-.307c.973.254 2.323.237 3-.037.677-.274-.119-.481-1.769-.461-1.65.02-2.204.244-1.231.498m-1.602 1.974c-1.152 1.151-.725 7.043.583 8.055 1.74 1.347 4.776 2.356 4.488 1.492-.131-.393.212-.714.762-.714s.876.371.725.824c-.151.454.226.515.837.137.801-.494.808-.991.025-1.774-.598-.598-1.087-2.257-1.087-3.687 0-3.916-4.008-6.658-6.333-4.333m11.224 12.143a3414.04 3414.04 0 01-8.61 13.819c-1.148 1.806-1.136 2.213.077 2.678 1.238.475 6.909-7.729 17.884-25.873.424-.702.134-1.459-.677-1.771-.978-.375-3.67 3.085-8.674 11.147M178 182.441c0 1.343.369 2.669.819 2.947.451.279.624-.82.387-2.441-.525-3.574-1.206-3.86-1.206-.506m20.204 1.626c-1.245 2.163-2.062 3.933-1.815 3.933.689 0 4.891-7.054 4.459-7.486-.209-.209-1.399 1.39-2.644 3.553M189.158 183c0 1.375.227 1.938.504 1.25.278-.687.278-1.812 0-2.5-.277-.687-.504-.125-.504 1.25m5.223 7.25c-.405.688-1.379 2.375-2.164 3.75-1.371 2.4-1.361 2.42.251.5 2.031-2.42 3.782-5.5 3.126-5.5-.262 0-.808.563-1.213 1.25m2.19 7.321c-2.239 2.24-2.077 9.662.258 11.774 2.516 2.277 7.726 2.1 10.171-.345 2.614-2.614 2.712-9.046.171-11.345-2.316-2.096-8.538-2.145-10.6-.084m-7.8 1.679c-2.188 3.373-4.15 7.39-3.053 6.25 1.402-1.457 5.527-8.5 4.979-8.5-.257 0-1.124 1.012-1.926 2.25m8.15-.5c-1.127 1.489-1.115 1.563.077.5.771-.687 2.019-1.25 2.773-1.25 1.077 0 1.035.337-.2 1.571-3.036 3.037-1.377 8.429 2.594 8.429 1.72 0 3.835-2.747 3.835-4.982 0-1.46-4.941-6.018-6.524-6.018-.677 0-1.827.787-2.555 1.75M206.5 201c.34.55.816 1 1.059 1s.441-.45.441-1-.477-1-1.059-1-.781.45-.441 1m.658 4c0 1.375.227 1.938.504 1.25.278-.687.278-1.812 0-2.5-.277-.687-.504-.125-.504 1.25m-6.908 4.689c.963.252 2.537.252 3.5 0 .963-.251.175-.457-1.75-.457s-2.713.206-1.75.457" fill="#1976D2" fill-rule="evenodd"/></svg>