<?xml version="1.0" encoding="utf-8"?>
<!-- Generator: Adobe Illustrator 25.4.1, SVG Export Plug-In . SVG Version: 6.00 Build 0)  -->
<svg version="1.1" xmlns="http://www.w3.org/2000/svg" xmlns:xlink="http://www.w3.org/1999/xlink" x="0px" y="0px"
	 viewBox="0 0 512 512" style="enable-background:new 0 0 512 512;" xml:space="preserve">
<style type="text/css">
	.st0{fill:#FFFFFF;}
	.st1{fill:#E84034;}
	.st2{fill:#DC3D31;}
	.st3{fill:#F2F2F2;}
	.st4{fill:#D12425;}
	.st5{fill:#FC271E;}
</style>
<g id="GRAFIKA">
	<path class="st0" d="M260.4,260.4V512h190c17.3,0,33-7.2,44.2-18.7L261.7,260.4H260.4z"/>
	<path class="st1" d="M512,61.6v198.8H260.4V512H61.6C27.6,512,0,484.4,0,450.4V61.6c0-17.3,7.2-33,18.7-44.2
		C29.8,6.7,44.9,0,61.6,0h388.8C484.4,0,512,27.6,512,61.6z"/>
	<path class="st2" d="M450.4,0H61.6C44.9,0,29.8,6.7,18.7,17.4l243,243H512v-8.8v-190C512,27.6,484.4,0,450.4,0z"/>
	<polygon class="st1" points="450.4,0 260.4,0 251.6,0 61.6,0 61.6,0 450.4,0 	"/>
	<path class="st3" d="M494.6,493.3c10.8-11.1,17.4-26.2,17.4-42.9v-190H261.7L494.6,493.3z"/>
	<polygon class="st4" points="512,251.6 512,260.4 260.4,260.4 260.4,512 251.6,512 251.6,260.4 0,260.4 0,251.6 251.6,251.6 
		251.6,0 260.4,0 260.4,251.6 	"/>
</g>
<g id="TEKST">
	<g>
		<g>
			<path class="st0" d="M326.5,136.6v25.7h-15v-73h28.5c5.5,0,10.3,1,14.5,3c4.2,2,7.4,4.9,9.6,8.5c2.2,3.7,3.4,7.9,3.4,12.6
				c0,7.1-2.4,12.8-7.3,16.9c-4.9,4.1-11.7,6.2-20.3,6.2H326.5z M326.5,124.4h13.4c4,0,7-0.9,9.1-2.8c2.1-1.9,3.1-4.5,3.1-8
				c0-3.6-1.1-6.5-3.2-8.7c-2.1-2.2-5-3.3-8.7-3.4h-13.8V124.4z"/>
			<path class="st0" d="M393.6,162.3h-15v-73h15V162.3z"/>
			<path class="st0" d="M461,101.5h-22.3v60.8h-15v-60.8h-22V89.3H461V101.5z"/>
		</g>
	</g>
	<g>
		<g>
			<path class="st0" d="M65.2,404.6l16.5-54.9h16.7l-25.4,73H57.4l-25.3-73h16.7L65.2,404.6z"/>
			<path class="st0" d="M142.8,407.7h-26.4l-5,15h-16l27.2-73h13.9l27.3,73h-16L142.8,407.7z M120.5,395.5h18.2l-9.2-27.3
				L120.5,395.5z"/>
			<path class="st0" d="M219.5,361.9h-22.3v60.8h-15v-60.8h-22v-12.2h59.4V361.9z"/>
		</g>
	</g>
	<g>
		<g>
			<path class="st0" d="M132.7,118.9h18.1v13.1h-18.1v20.4h-13.8v-20.4h-18.1v-13.1h18.1V99.3h13.8V118.9z"/>
		</g>
	</g>
	<g>
		<g>
			<path class="st5" d="M352.9,363.8c0-4.5,1.5-8.1,4.4-10.9c2.9-2.8,6.7-4.2,11.4-4.2c4.8,0,8.6,1.4,11.5,4.1s4.4,6.5,4.4,11.2v3.6
				c0,4.5-1.5,8.1-4.4,10.9c-2.9,2.7-6.7,4.1-11.4,4.1c-4.7,0-8.6-1.4-11.5-4.1c-2.9-2.8-4.4-6.5-4.4-11.1V363.8z M362.5,367.6
				c0,2,0.6,3.6,1.7,4.8c1.2,1.2,2.7,1.8,4.5,1.8c1.9,0,3.4-0.6,4.5-1.9c1.1-1.2,1.7-2.9,1.7-5v-3.7c0-2-0.6-3.6-1.7-4.9
				c-1.1-1.2-2.6-1.9-4.6-1.9c-1.8,0-3.3,0.6-4.5,1.8c-1.1,1.2-1.7,2.9-1.7,5.1V367.6z M371.7,417.2l-7.1-3.8l35.6-57l7.1,3.8
				L371.7,417.2z M387.8,404.8c0-4.5,1.5-8.1,4.4-10.9c2.9-2.8,6.7-4.1,11.4-4.1c4.7,0,8.6,1.4,11.5,4.1c2.9,2.7,4.4,6.5,4.4,11.2
				v3.6c0,4.5-1.4,8.1-4.3,10.8c-2.9,2.8-6.7,4.1-11.5,4.1c-4.8,0-8.7-1.4-11.6-4.2s-4.4-6.4-4.4-11V404.8z M397.4,408.7
				c0,1.8,0.6,3.4,1.8,4.7c1.2,1.3,2.7,2,4.5,2c4.1,0,6.1-2.3,6.1-6.8v-3.8c0-2-0.6-3.6-1.7-4.8c-1.1-1.2-2.6-1.8-4.5-1.8
				s-3.4,0.6-4.5,1.8c-1.1,1.2-1.7,2.9-1.7,5V408.7z"/>
		</g>
	</g>
</g>
</svg>
